<?xml version="1.0" encoding="UTF-8"?>
<svg version="1.1" xmlns="http://www.w3.org/2000/svg" width="500" height="500">
<path d="M0 0 C1.07421875 2.65234375 1.07421875 2.65234375 1.6875 5.9375 C2.0278125 7.68546875 2.0278125 7.68546875 2.375 9.46875 C2.58125 10.6340625 2.7875 11.799375 3 13 C3.20625 14.0209375 3.4125 15.041875 3.625 16.09375 C6.06091102 28.40863347 6.06091102 28.40863347 3 33 C-0.125 33.6875 -0.125 33.6875 -3 34 C-1.68 34 -0.36 34 1 34 C0.36799877 37.39153137 -0.91818954 39.64982552 -2.87109375 42.4765625 C-3.44537109 43.311875 -4.01964844 44.1471875 -4.61132812 45.0078125 C-5.21396484 45.87148438 -5.81660156 46.73515625 -6.4375 47.625 C-7.03626953 48.49640625 -7.63503906 49.3678125 -8.25195312 50.265625 C-12.69754464 56.69754464 -12.69754464 56.69754464 -15 59 C-22.39855369 59.22810554 -27.56371348 54.67597928 -33.375 50.5625 C-34.38433594 49.86833984 -35.39367187 49.17417969 -36.43359375 48.45898438 C-43.84736817 43.30526367 -43.84736817 43.30526367 -45 41 C-45.825 40.7525 -46.65 40.505 -47.5 40.25 C-48.7375 39.63125 -48.7375 39.63125 -50 39 C-51.13241159 35.41311924 -51.29638931 33.64358661 -49.70825195 30.19506836 C-49.05816162 29.25284424 -48.40807129 28.31062012 -47.73828125 27.33984375 C-47.03123047 26.29892578 -46.32417969 25.25800781 -45.59570312 24.18554688 C-44.84224609 23.11369141 -44.08878906 22.04183594 -43.3125 20.9375 C-42.57837891 19.86177734 -41.84425781 18.78605469 -41.08789062 17.67773438 C-39.08707511 14.76236362 -37.07472751 11.86323369 -35 9 C-34.0711499 7.64938477 -34.0711499 7.64938477 -33.12353516 6.27148438 C-30.52918638 3.49638424 -28.77435811 2.97284722 -25.09765625 2.12890625 C-23.96005859 1.86529297 -22.82246094 1.60167969 -21.65039062 1.33007812 C-20.46638672 1.07677734 -19.28238281 0.82347656 -18.0625 0.5625 C-16.88236328 0.28212891 -15.70222656 0.00175781 -14.48632812 -0.28710938 C-4.50395079 -2.51859723 -4.50395079 -2.51859723 0 0 Z M-13.6875 10.5 C-14.120625 10.995 -14.55375 11.49 -15 12 C-14.34 13.65 -13.68 15.3 -13 17 C-11.33388095 17.042721 -9.66617115 17.04063832 -8 17 C-6.72996677 15.94689723 -6.72996677 15.94689723 -6.8125 13.5625 C-6.73160017 10.83265325 -6.73160017 10.83265325 -9 9 C-12.00259517 8.66781808 -12.00259517 8.66781808 -13.6875 10.5 Z M-16 35 C-16 35.33 -16 35.66 -16 36 C-14.02 36 -12.04 36 -10 36 C-10 35.67 -10 35.34 -10 35 C-11.98 35 -13.96 35 -16 35 Z M-20 36 C-16 37 -16 37 -16 37 Z M-29 37 C-29 37.33 -29 37.66 -29 38 C-27.02 38 -25.04 38 -23 38 C-23 37.67 -23 37.34 -23 37 C-24.98 37 -26.96 37 -29 37 Z M-33 38 C-29 39 -29 39 -29 39 Z M-42 39 C-42 39.33 -42 39.66 -42 40 C-39.69 40 -37.38 40 -35 40 C-35 39.67 -35 39.34 -35 39 C-37.31 39 -39.62 39 -42 39 Z " fill="#F37425" transform="translate(180,219)"/>
<path d="M0 0 C0.76183594 -0.01417969 1.52367187 -0.02835938 2.30859375 -0.04296875 C4.79597315 0.21137334 6.41058106 0.94732804 8.5625 2.1875 C8.2325 4.8275 7.9025 7.4675 7.5625 10.1875 C5.35377362 10.1875 3.14372641 10.1675584 0.9375 10.0625 C-1.62796912 9.93199264 -1.62796912 9.93199264 -3.4375 12.1875 C-3.7675 13.5075 -4.0975 14.8275 -4.4375 16.1875 C0.5125 16.1875 5.4625 16.1875 10.5625 16.1875 C10.624375 14.805625 10.68625 13.42375 10.75 12 C11.15568363 8.36598892 11.49868448 7.27081471 13.8125 4.25 C19.14329557 0.25190332 23.9827773 -0.65951654 30.5625 0.1875 C33.125 1.6875 33.125 1.6875 34.5625 3.1875 C33.9025 5.8275 33.2425 8.4675 32.5625 11.1875 C28.1075 10.1975 28.1075 10.1975 23.5625 9.1875 C23.5625 9.8475 23.5625 10.5075 23.5625 11.1875 C22.9025 11.1875 22.2425 11.1875 21.5625 11.1875 C21.5625 12.8375 21.5625 14.4875 21.5625 16.1875 C22.27277344 16.17589844 22.98304688 16.16429687 23.71484375 16.15234375 C24.63394531 16.14332031 25.55304688 16.13429687 26.5 16.125 C27.87478516 16.10759766 27.87478516 16.10759766 29.27734375 16.08984375 C31.5625 16.1875 31.5625 16.1875 32.5625 17.1875 C32.70365161 19.85808851 32.60497107 22.51182238 32.5625 25.1875 C28.9325 25.1875 25.3025 25.1875 21.5625 25.1875 C21.5625 34.7575 21.5625 44.3275 21.5625 54.1875 C17.9325 54.1875 14.3025 54.1875 10.5625 54.1875 C10.8925 44.6175 11.2225 35.0475 11.5625 25.1875 C6.2825 25.1875 1.0025 25.1875 -4.4375 25.1875 C-4.4375 34.7575 -4.4375 44.3275 -4.4375 54.1875 C-7.7375 54.1875 -11.0375 54.1875 -14.4375 54.1875 C-14.4375 44.6175 -14.4375 35.0475 -14.4375 25.1875 C-16.4175 25.1875 -18.3975 25.1875 -20.4375 25.1875 C-21.4375 24.1875 -21.4375 24.1875 -21.53515625 22.33984375 C-21.50260417 20.2890625 -21.47005208 18.23828125 -21.4375 16.1875 C-19.4575 16.1875 -17.4775 16.1875 -15.4375 16.1875 C-15.32535156 15.19169922 -15.32535156 15.19169922 -15.2109375 14.17578125 C-14.00288907 6.06290696 -14.00288907 6.06290696 -10.5 3.125 C-6.8354059 0.80658333 -4.25573603 0.0358831 0 0 Z " fill="#2F3840" transform="translate(228.4375,212.8125)"/>
<path d="M0 0 C0.67611328 0.03544922 1.35222656 0.07089844 2.04882812 0.10742188 C7.06696429 0.44196429 7.06696429 0.44196429 9.3125 2.6875 C10.63149294 6.20358983 11.83190996 9.73931419 13.01367188 13.30273438 C13.26568359 14.04458984 13.51769531 14.78644531 13.77734375 15.55078125 C14.000271 16.22407471 14.22319824 16.89736816 14.45288086 17.59106445 C15.49323132 20.12826678 16.85881902 22.36681749 18.3125 24.6875 C18.5798999 23.99599854 18.8472998 23.30449707 19.12280273 22.59204102 C20.32913873 19.47696212 21.539513 16.36346807 22.75 13.25 C23.17087891 12.16138672 23.59175781 11.07277344 24.02539062 9.95117188 C24.42822266 8.91669922 24.83105469 7.88222656 25.24609375 6.81640625 C25.61790771 5.85806885 25.98972168 4.89973145 26.37280273 3.91235352 C27.3125 1.6875 27.3125 1.6875 28.3125 0.6875 C30.16537502 0.61523498 32.02083878 0.6036878 33.875 0.625 C34.88691406 0.63402344 35.89882813 0.64304688 36.94140625 0.65234375 C37.72386719 0.66394531 38.50632812 0.67554688 39.3125 0.6875 C35.93337821 10.08248256 32.26807761 19.27444543 28.14135742 28.36767578 C26.33553022 32.35207871 24.64706395 36.33347331 23.125 40.4375 C21.26948476 45.17846406 18.90536625 49.11671796 14.4296875 51.828125 C9.73194532 53.73495762 4.63851121 52.99532403 -0.1875 51.875 C-1.0125 51.483125 -1.8375 51.09125 -2.6875 50.6875 C-3.6875 47.6875 -3.6875 47.6875 -2.25 44.5 C-1.734375 43.571875 -1.21875 42.64375 -0.6875 41.6875 C0.01117188 41.78289062 0.70984375 41.87828125 1.4296875 41.9765625 C2.33976562 42.08742188 3.24984375 42.19828125 4.1875 42.3125 C5.09242188 42.42851562 5.99734375 42.54453125 6.9296875 42.6640625 C7.71601563 42.67179687 8.50234375 42.67953125 9.3125 42.6875 C9.9725 42.0275 10.6325 41.3675 11.3125 40.6875 C10.97453025 35.92829888 9.33513092 32.06725328 7.37109375 27.7578125 C7.08396011 27.12261688 6.79682648 26.48742126 6.50099182 25.83297729 C5.59060921 23.82306819 4.67049811 21.81779344 3.75 19.8125 C3.12760477 18.44300375 2.50585334 17.07321472 1.88476562 15.703125 C0.36810774 12.36116492 -1.15730249 9.02328616 -2.6875 5.6875 C-3.0175 7.0075 -3.3475 8.3275 -3.6875 9.6875 C-4.60982422 9.83445313 -4.60982422 9.83445313 -5.55078125 9.984375 C-6.35902344 10.13390625 -7.16726563 10.2834375 -8 10.4375 C-8.80050781 10.57671875 -9.60101563 10.7159375 -10.42578125 10.859375 C-13.33931153 11.92615984 -14.08487448 13.05172123 -15.6875 15.6875 C-16.18698459 18.28912971 -16.18698459 18.28912971 -16.19921875 21.109375 C-16.23466797 22.13417969 -16.27011719 23.15898437 -16.30664062 24.21484375 C-16.34047852 25.81005859 -16.34047852 25.81005859 -16.375 27.4375 C-16.40916016 28.51644531 -16.44332031 29.59539062 -16.47851562 30.70703125 C-16.56089858 33.36682392 -16.62587837 36.02714537 -16.6875 38.6875 C-20.3175 38.6875 -23.9475 38.6875 -27.6875 38.6875 C-27.6875 26.1475 -27.6875 13.6075 -27.6875 0.6875 C-24.3875 0.6875 -21.0875 0.6875 -17.6875 0.6875 C-17.6875 1.6775 -17.6875 2.6675 -17.6875 3.6875 C-16.6046875 2.9759375 -16.6046875 2.9759375 -15.5 2.25 C-10.34190523 -0.61560821 -5.81596592 -0.38165496 0 0 Z " fill="#2E363F" transform="translate(334.6875,228.3125)"/>
<path d="M0 0 C2.375 2.5 2.375 2.5 2.375 4.5 C3.035 4.5 3.695 4.5 4.375 4.5 C7.22059287 9.83548663 6.375 12.60556182 6.375 19.5 C-2.865 19.83 -12.105 20.16 -21.625 20.5 C-17.50457752 25.4269119 -17.50457752 25.4269119 -14.5625 26.09375 C-10.01963597 25.873934 -7.52390919 24.99096976 -3.625 22.5 C-1.3125 22.8125 -1.3125 22.8125 0.375 23.5 C0.375 24.16 0.375 24.82 0.375 25.5 C1.035 25.5 1.695 25.5 2.375 25.5 C2.87 27.48 2.87 27.48 3.375 29.5 C-2.7444987 34.92410112 -6.52014503 35.77845352 -14.71875 35.734375 C-18.97464933 35.39115731 -22.70087006 34.12778724 -26.625 32.5 C-26.625 31.84 -26.625 31.18 -26.625 30.5 C-27.5221875 30.2215625 -27.5221875 30.2215625 -28.4375 29.9375 C-31.70449413 27.79061814 -32.73471943 25.16922777 -33.625 21.5 C-34.52022624 14.40630514 -34.23454078 9.01782721 -30.01171875 3.12109375 C-25.84360959 -1.75148457 -22.47122323 -3.79954094 -15.90625 -4.4609375 C-10.10200454 -4.56032526 -4.61501701 -3.67895224 0 0 Z M-20.625 7.5 C-21.285 8.82 -21.945 10.14 -22.625 11.5 C-16.685 11.5 -10.745 11.5 -4.625 11.5 C-7.12556593 6.52378257 -7.12556593 6.52378257 -10.625 4.5 C-14.8495618 3.9441366 -17.25470181 4.94950407 -20.625 7.5 Z " fill="#374048" transform="translate(294.625,232.5)"/>
<path d="M0 0 C0.33 0 0.66 0 1 0 C1.12375 0.78375 1.2475 1.5675 1.375 2.375 C1.79117993 5.14057822 1.79117993 5.14057822 4 7 C5.94165643 7.18434051 5.94165643 7.18434051 8.1328125 6.9765625 C9.34130859 6.89921875 9.34130859 6.89921875 10.57421875 6.8203125 C11.41597656 6.75585938 12.25773438 6.69140625 13.125 6.625 C14.39923828 6.53992188 14.39923828 6.53992188 15.69921875 6.453125 C17.8001345 6.31149023 19.90017334 6.15695674 22 6 C22 5.34 22 4.68 22 4 C26.0660276 3.27066769 30.06739884 2.78661573 34.1875 2.5 C40.13241684 2.06950602 46.06589939 1.5589233 52 1 C52 1.66 52 2.32 52 3 C50.02 3.33 48.04 3.66 46 4 C47.32 4 48.64 4 50 4 C49.36799877 7.39153137 48.08181046 9.64982552 46.12890625 12.4765625 C45.55462891 13.311875 44.98035156 14.1471875 44.38867188 15.0078125 C43.78603516 15.87148438 43.18339844 16.73515625 42.5625 17.625 C41.96373047 18.49640625 41.36496094 19.3678125 40.74804688 20.265625 C36.30245536 26.69754464 36.30245536 26.69754464 34 29 C26.60144631 29.22810554 21.43628652 24.67597928 15.625 20.5625 C14.61566406 19.86833984 13.60632813 19.17417969 12.56640625 18.45898438 C5.15263183 13.30526367 5.15263183 13.30526367 4 11 C2.7625 10.62875 2.7625 10.62875 1.5 10.25 C0.675 9.8375 -0.15 9.425 -1 9 C-1.9375 6.0625 -1.9375 6.0625 -2 3 C-1.34 2.01 -0.68 1.02 0 0 Z M33 5 C33 5.33 33 5.66 33 6 C34.98 6 36.96 6 39 6 C39 5.67 39 5.34 39 5 C37.02 5 35.04 5 33 5 Z M29 6 C33 7 33 7 33 7 Z M20 7 C20 7.33 20 7.66 20 8 C21.98 8 23.96 8 26 8 C26 7.67 26 7.34 26 7 C24.02 7 22.04 7 20 7 Z M16 8 C20 9 20 9 20 9 Z M7 9 C7 9.33 7 9.66 7 10 C9.31 10 11.62 10 14 10 C14 9.67 14 9.34 14 9 C11.69 9 9.38 9 7 9 Z " fill="#EE7932" transform="translate(131,249)"/>
<path d="M0 0 C6.19095461 0.68788385 12.19973855 1.68914957 16.37109375 6.62109375 C20.53683324 12.48617173 21.72192867 18.33002391 20.625 25.42578125 C19.04656067 31.2956025 16.18528254 34.86680804 11 38 C4.28205089 41.24028287 -0.86944674 41.37685109 -8 39 C-7.47301347 35.20569696 -6.93480158 32.56795139 -4 30 C-1.69944787 29.63946571 0.51553198 29.49979291 2.84375 29.46875 C5.12330928 29.16460863 5.12330928 29.16460863 6.76953125 27.359375 C8.35335443 24.3224569 8.29858219 22.15652061 8.1875 18.75 C8.16042969 17.67234375 8.13335937 16.5946875 8.10546875 15.484375 C8.05326172 14.25460938 8.05326172 14.25460938 8 13 C7.34 13 6.68 13 6 13 C6 12.34 6 11.68 6 11 C3.03 10.505 3.03 10.505 0 10 C-0.19412181 8.52168779 -0.38012131 7.04230684 -0.5625 5.5625 C-0.66691406 4.73878906 -0.77132812 3.91507813 -0.87890625 3.06640625 C-0.91886719 2.38449219 -0.95882812 1.70257813 -1 1 C-0.67 0.67 -0.34 0.34 0 0 Z " fill="#394149" transform="translate(186,228)"/>
<path d="M0 0 C0.33 0.66 0.66 1.32 1 2 C0.06876126 4.68065847 -0.93242136 7.21724782 -2.0625 9.8125 C-2.35060547 10.52470703 -2.63871094 11.23691406 -2.93554688 11.97070312 C-5.38234844 17.63449862 -8.36065576 21.18032788 -14 24 C-19.25948068 24.45231534 -24.16221003 24.29795023 -29 22 C-30 19 -30 19 -28.5625 15.8125 C-28.046875 14.884375 -27.53125 13.95625 -27 13 C-26.32453125 13.11859375 -25.6490625 13.2371875 -24.953125 13.359375 C-22.26326279 13.74808341 -19.71904722 14.04315948 -17 14 C-14.83333333 12.16666667 -14.83333333 12.16666667 -13 10 C-9.7128264 9.16495187 -6.38959722 9 -3 9 C-3.061875 8.071875 -3.12375 7.14375 -3.1875 6.1875 C-3 3 -3 3 -1.5 1.125 C-1.005 0.75375 -0.51 0.3825 0 0 Z " fill="#3E464F" transform="translate(361,257)"/>
<path d="M0 0 C2.375 2.5 2.375 2.5 2.375 4.5 C3.035 4.5 3.695 4.5 4.375 4.5 C4.87 6.975 4.87 6.975 5.375 9.5 C4.92125 9.005 4.4675 8.51 4 8 C2.49864481 6.27390663 2.49864481 6.27390663 0.375 6.5 C0.375 7.16 0.375 7.82 0.375 8.5 C-0.984375 10.609375 -0.984375 10.609375 -3.625 12.5 C-7.05251331 13.0009209 -10.42048445 12.87579468 -13.875 12.75 C-14.81085938 12.73195312 -15.74671875 12.71390625 -16.7109375 12.6953125 C-19.01667015 12.64825673 -21.32030945 12.58253713 -23.625 12.5 C-23.295 11.84 -22.965 11.18 -22.625 10.5 C-17.015 10.5 -11.405 10.5 -5.625 10.5 C-9.78618509 5.39101191 -9.78618509 5.39101191 -13.30078125 5.01171875 C-14.17089844 5.06972656 -15.04101562 5.12773437 -15.9375 5.1875 C-16.82050781 5.23261719 -17.70351563 5.27773437 -18.61328125 5.32421875 C-19.60908203 5.41123047 -19.60908203 5.41123047 -20.625 5.5 C-19.965 4.51 -19.305 3.52 -18.625 2.5 C-19.285 1.18 -19.945 -0.14 -20.625 -1.5 C-21.0375 -0.984375 -21.45 -0.46875 -21.875 0.0625 C-22.4525 0.536875 -23.03 1.01125 -23.625 1.5 C-25.8125 1.1875 -25.8125 1.1875 -27.625 0.5 C-19.63101093 -5.69534153 -8.25175081 -6.57804664 0 0 Z " fill="#323B44" transform="translate(294.625,232.5)"/>
<path d="M0 0 C0.33 0 0.66 0 1 0 C1.12375 0.78375 1.2475 1.5675 1.375 2.375 C1.79117993 5.14057822 1.79117993 5.14057822 4 7 C5.94165643 7.18434051 5.94165643 7.18434051 8.1328125 6.9765625 C9.34130859 6.89921875 9.34130859 6.89921875 10.57421875 6.8203125 C11.41597656 6.75585938 12.25773438 6.69140625 13.125 6.625 C14.39923828 6.53992188 14.39923828 6.53992188 15.69921875 6.453125 C17.8001345 6.31149023 19.90017334 6.15695674 22 6 C22 5.34 22 4.68 22 4 C26.0660276 3.27066769 30.06739884 2.78661573 34.1875 2.5 C40.13241684 2.06950602 46.06589939 1.5589233 52 1 C52 1.66 52 2.32 52 3 C50.02 3.33 48.04 3.66 46 4 C47.32 4 48.64 4 50 4 C49.45773019 7.79588866 47.79872437 9.47211993 45 12 C45.33 10.35 45.66 8.7 46 7 C43.41638482 6.94592433 40.83390745 6.906293 38.25 6.875 C37.52039063 6.85824219 36.79078125 6.84148437 36.0390625 6.82421875 C32.15251569 6.78888651 29.30688819 6.88421846 26 9 C20.79405151 10.98321847 15.45870718 11.98593187 10 13 C10 13.66 10 14.32 10 15 C10.66 15 11.32 15 12 15 C11.67 15.66 11.34 16.32 11 17 C5.125 13.25 5.125 13.25 4 11 C2.7625 10.62875 2.7625 10.62875 1.5 10.25 C0.675 9.8375 -0.15 9.425 -1 9 C-1.9375 6.0625 -1.9375 6.0625 -2 3 C-1.34 2.01 -0.68 1.02 0 0 Z M33 5 C33 5.33 33 5.66 33 6 C34.98 6 36.96 6 39 6 C39 5.67 39 5.34 39 5 C37.02 5 35.04 5 33 5 Z M20 7 C20 7.33 20 7.66 20 8 C21.98 8 23.96 8 26 8 C26 7.67 26 7.34 26 7 C24.02 7 22.04 7 20 7 Z M16 8 C20 9 20 9 20 9 Z M7 9 C7 9.33 7 9.66 7 10 C9.31 10 11.62 10 14 10 C14 9.67 14 9.34 14 9 C11.69 9 9.38 9 7 9 Z " fill="#EA9965" transform="translate(131,249)"/>
<path d="M0 0 C0.67611328 0.03544922 1.35222656 0.07089844 2.04882812 0.10742188 C7.06696429 0.44196429 7.06696429 0.44196429 9.3125 2.6875 C9.91561615 4.37511858 10.45100237 6.08764476 10.9375 7.8125 C11.32808594 9.17761719 11.32808594 9.17761719 11.7265625 10.5703125 C12.01660156 11.61832031 12.01660156 11.61832031 12.3125 12.6875 C11.52488281 12.79964844 10.73726563 12.91179687 9.92578125 13.02734375 C7.06472675 13.44886584 7.06472675 13.44886584 5.5 16.25 C5.108125 17.054375 4.71625 17.85875 4.3125 18.6875 C4.9725 19.0175 5.6325 19.3475 6.3125 19.6875 C5.6525 20.3475 4.9925 21.0075 4.3125 21.6875 C2.0025 16.4075 -0.3075 11.1275 -2.6875 5.6875 C-3.0175 7.0075 -3.3475 8.3275 -3.6875 9.6875 C-4.30238281 9.80867187 -4.91726563 9.92984375 -5.55078125 10.0546875 C-6.35902344 10.22226563 -7.16726563 10.38984375 -8 10.5625 C-9.20076172 10.80613281 -9.20076172 10.80613281 -10.42578125 11.0546875 C-12.94051118 11.63228999 -12.94051118 11.63228999 -15.6875 13.6875 C-14.8125 8.9375 -14.8125 8.9375 -13.6875 6.6875 C-9.2325 7.6775 -9.2325 7.6775 -4.6875 8.6875 C-4.6875 6.3775 -4.6875 4.0675 -4.6875 1.6875 C-7.3275 1.6875 -9.9675 1.6875 -12.6875 1.6875 C-12.6875 1.3575 -12.6875 1.0275 -12.6875 0.6875 C-8.35344044 -0.42745149 -4.45039643 -0.29204364 0 0 Z " fill="#41484F" transform="translate(334.6875,228.3125)"/>
<path d="M0 0 C2.03430147 1.94953891 2.95938537 3.38475611 3.14648438 6.21899414 C3.12908203 7.02457764 3.11167969 7.83016113 3.09375 8.66015625 C3.07344727 9.87844116 3.07344727 9.87844116 3.05273438 11.12133789 C3.03533203 11.74129639 3.01792969 12.36125488 3 13 C-0.62498334 13.02893932 -4.24993713 13.04677792 -7.875 13.0625 C-9.42380859 13.07506836 -9.42380859 13.07506836 -11.00390625 13.08789062 C-11.99003906 13.09111328 -12.97617187 13.09433594 -13.9921875 13.09765625 C-14.90339355 13.10289307 -15.81459961 13.10812988 -16.75341797 13.11352539 C-19 13 -19 13 -21 12 C-23.3400417 12.28241883 -25.67504723 12.61250787 -28 13 C-27.34 11.02 -26.68 9.04 -26 7 C-19.4 7 -12.8 7 -6 7 C-5.34 5.68 -4.68 4.36 -4 3 C-3.34 3 -2.68 3 -2 3 C-2 2.34 -2 1.68 -2 1 C-1.34 0.67 -0.68 0.34 0 0 Z " fill="#242E36" transform="translate(297,238)"/>
<path d="M0 0 C1.10408203 0.01353516 1.10408203 0.01353516 2.23046875 0.02734375 C4.0287888 0.05069856 5.82693911 0.08656164 7.625 0.125 C7.295 1.775 6.965 3.425 6.625 5.125 C5.305 4.795 3.985 4.465 2.625 4.125 C2.625 5.775 2.625 7.425 2.625 9.125 C1.29166667 9.79166667 -0.04166667 10.45833333 -1.375 11.125 C-2.014375 11.475625 -2.65375 11.82625 -3.3125 12.1875 C-8.57273378 14.57851535 -11.92278427 13.94240524 -17.375 12.125 C-17.045 11.465 -16.715 10.805 -16.375 10.125 C-15.055 10.125 -13.735 10.125 -12.375 10.125 C-12.6534375 8.9184375 -12.6534375 8.9184375 -12.9375 7.6875 C-13.081875 6.841875 -13.22625 5.99625 -13.375 5.125 C-13.045 4.795 -12.715 4.465 -12.375 4.125 C-13.035 3.465 -13.695 2.805 -14.375 2.125 C-9.40488327 0.13381759 -5.25166865 -0.12345695 0 0 Z " fill="#F07427" transform="translate(169.375,255.875)"/>
<path d="M0 0 C2.8203125 -0.29296875 2.8203125 -0.29296875 6.125 -0.1875 C7.76855469 -0.14689453 7.76855469 -0.14689453 9.4453125 -0.10546875 C10.28835937 -0.07066406 11.13140625 -0.03585938 12 0 C12.12117187 0.81984375 12.24234375 1.6396875 12.3671875 2.484375 C12.53476563 3.56203125 12.70234375 4.6396875 12.875 5.75 C13.11863281 7.35101563 13.11863281 7.35101563 13.3671875 8.984375 C13.83778138 11.9075993 13.83778138 11.9075993 15.03125 13.96875 C16.41217347 16.86423469 16.43384708 19.56411801 16.625 22.75 C16.69976562 23.92046875 16.77453125 25.0909375 16.8515625 26.296875 C16.90054688 27.18890625 16.94953125 28.0809375 17 29 C15.35 29.33 13.7 29.66 12 30 C12 26.04 12 22.08 12 18 C10.68 17.34 9.36 16.68 8 16 C8 13.03 8 10.06 8 7 C5.03 6.67 2.06 6.34 -1 6 C-1.33 5.01 -1.66 4.02 -2 3 C-1.34 2.01 -0.68 1.02 0 0 Z " fill="#F37424" transform="translate(166,221)"/>
<path d="M0 0 C2 3 2 3 3 6 C2.01 6.495 2.01 6.495 1 7 C1 7.99 1 8.98 1 10 C0.01 11.485 0.01 11.485 -1 13 C-1.66 13 -2.32 13 -3 13 C-3 14.32 -3 15.64 -3 17 C-3.99 17 -4.98 17 -6 17 C-6.28875 17.61875 -6.5775 18.2375 -6.875 18.875 C-8 21 -8 21 -10 23 C-10.69748583 24.31747324 -11.36959957 25.64914193 -12 27 C-13.85048319 21.44855044 -14.10620573 15.04683388 -12.09375 9.50390625 C-10.0314445 5.90148158 -8.6843989 4.2952309 -4.8125 2.625 C-3.884375 2.41875 -2.95625 2.2125 -2 2 C-1.34 1.34 -0.68 0.68 0 0 Z " fill="#343C44" transform="translate(274,230)"/>
<path d="M0 0 C1.98 0 3.96 0 6 0 C9.08467498 5.39459439 10.55643705 9.79011871 11 16 C10.67 15.34 10.34 14.68 10 14 C8.04105639 14.11306697 8.04105639 14.11306697 6 15 C4.70339566 17.49034386 4.70339566 17.49034386 4 20 C-0.01112672 15.07725357 -1.53894285 10.33953584 -2 4 C-1.0625 1.5625 -1.0625 1.5625 0 0 Z " fill="#384048" transform="translate(341,241)"/>
<path d="M0 0 C1.07421875 2.65234375 1.07421875 2.65234375 1.6875 5.9375 C2.0278125 7.68546875 2.0278125 7.68546875 2.375 9.46875 C2.684375 11.21671875 2.684375 11.21671875 3 13 C3.20625 14.0209375 3.4125 15.041875 3.625 16.09375 C4.55282674 20.78442963 5.25974992 25.19462653 5 30 C4.01 30.495 4.01 30.495 3 31 C2.79503906 29.85660156 2.59007812 28.71320313 2.37890625 27.53515625 C2.1069769 26.04423324 1.83483026 24.55334984 1.5625 23.0625 C1.42779297 22.30775391 1.29308594 21.55300781 1.15429688 20.77539062 C0.75727966 17.08046826 0.75727966 17.08046826 -1 14 C-1.23427778 11.98405418 -1.41336124 9.961526 -1.5625 7.9375 C-1.68818359 6.28041016 -1.68818359 6.28041016 -1.81640625 4.58984375 C-1.87699219 3.73519531 -1.93757813 2.88054687 -2 2 C-2.65355469 2.16371094 -3.30710938 2.32742187 -3.98046875 2.49609375 C-7.76991774 3.12848563 -11.48490951 3.10696709 -15.3125 3.0625 C-16.05306641 3.05798828 -16.79363281 3.05347656 -17.55664062 3.04882812 C-19.37112899 3.03712175 -21.18557534 3.01918898 -23 3 C-19.49691193 1.00821925 -15.98006969 0.13636582 -12.0625 -0.75 C-10.25458984 -1.17539063 -10.25458984 -1.17539063 -8.41015625 -1.609375 C-4.74230745 -2.02951805 -3.06603274 -2.05324575 0 0 Z " fill="#E68E57" transform="translate(180,219)"/>
<path d="M0 0 C0.8353125 0.37125 0.8353125 0.37125 1.6875 0.75 C1.6875 1.41 1.6875 2.07 1.6875 2.75 C2.3475 2.75 3.0075 2.75 3.6875 2.75 C4.0175 4.07 4.3475 5.39 4.6875 6.75 C-0.10194649 11.53944649 -3.58744919 12.58560987 -10.3125 12.75 C-9.9825 12.09 -9.6525 11.43 -9.3125 10.75 C-9.9725 10.09 -10.6325 9.43 -11.3125 8.75 C-10.6525 8.09 -9.9925 7.43 -9.3125 6.75 C-8.6525 7.08 -7.9925 7.41 -7.3125 7.75 C-7.3125 6.43 -7.3125 5.11 -7.3125 3.75 C-3.31514375 -0.35839392 -3.31514375 -0.35839392 0 0 Z " fill="#343D46" transform="translate(293.3125,255.25)"/>
<path d="M0 0 C0 0.66 0 1.32 0 2 C-1.98 2.33 -3.96 2.66 -6 3 C-4.68 3 -3.36 3 -2 3 C-2.54226981 6.79588866 -4.20127563 8.47211993 -7 11 C-6.67 9.35 -6.34 7.7 -6 6 C-7.21623047 6.01740234 -7.21623047 6.01740234 -8.45703125 6.03515625 C-15.70566174 6.09422542 -22.79632201 5.80842879 -30 5 C-30 4.34 -30 3.68 -30 3 C-25.85003048 2.25113332 -21.76895429 1.78278684 -17.5625 1.5 C-13.99891501 1.24429857 -10.46938887 0.98027946 -6.9375 0.4375 C-4 0 -4 0 0 0 Z M-19 4 C-19 4.33 -19 4.66 -19 5 C-17.02 5 -15.04 5 -13 5 C-13 4.67 -13 4.34 -13 4 C-14.98 4 -16.96 4 -19 4 Z " fill="#E58A4D" transform="translate(183,250)"/>
<path d="M0 0 C8.19256018 -0.4726477 8.19256018 -0.4726477 11.5625 1.5 C12.036875 1.995 12.51125 2.49 13 3 C12.34 5.64 11.68 8.28 11 11 C6.545 10.01 6.545 10.01 2 9 C1.67 9.66 1.34 10.32 1 11 C0.79859524 7.37471432 1.14223235 5.13498292 3 2 C2.01 1.67 1.02 1.34 0 1 C0 0.67 0 0.34 0 0 Z " fill="#4A5156" transform="translate(250,213)"/>
<path d="M0 0 C0.33 0 0.66 0 1 0 C1 3.3 1 6.6 1 10 C0.01604248 10.00410889 -0.96791504 10.00821777 -1.98168945 10.01245117 C-5.63310095 10.03422662 -9.28343233 10.0884972 -12.93432617 10.15258789 C-14.51429897 10.17578224 -16.0944267 10.19016704 -17.67456055 10.19555664 C-19.94678439 10.20483685 -22.21656715 10.24579747 -24.48828125 10.29296875 C-25.19463211 10.2890361 -25.90098297 10.28510345 -26.6287384 10.28105164 C-28.87467071 10.29350364 -28.87467071 10.29350364 -32 11 C-33.88700704 13.43651414 -33.88700704 13.43651414 -35 16 C-35.66 16 -36.32 16 -37 16 C-37.38613383 13.37428995 -37.38493778 11.6156121 -35.95703125 9.33203125 C-34.625 7.6875 -34.625 7.6875 -32 5 C-31.34 5 -30.68 5 -30 5 C-29.67 5.99 -29.34 6.98 -29 8 C-28.030625 7.814375 -27.06125 7.62875 -26.0625 7.4375 C-24.5465625 7.2209375 -24.5465625 7.2209375 -23 7 C-22.67 7.33 -22.34 7.66 -22 8 C-20.53430336 8.07463764 -19.06510515 8.08326375 -17.59765625 8.0625 C-16.26250977 8.05089844 -16.26250977 8.05089844 -14.90039062 8.0390625 C-13.01236905 8.01307459 -11.12434821 7.98703315 -9.23632812 7.9609375 C-8.34494141 7.95320312 -7.45355469 7.94546875 -6.53515625 7.9375 C-5.714104 7.92589844 -4.89305176 7.91429687 -4.04711914 7.90234375 C-2 8 -2 8 0 9 C0 6.03 0 3.06 0 0 Z " fill="#4A5157" transform="translate(300,242)"/>
<path d="M0 0 C0.76183594 -0.01417969 1.52367187 -0.02835938 2.30859375 -0.04296875 C4.79597315 0.21137334 6.41058106 0.94732804 8.5625 2.1875 C8.2325 4.8275 7.9025 7.4675 7.5625 10.1875 C6.2425 10.1875 4.9225 10.1875 3.5625 10.1875 C3.2325 8.8675 2.9025 7.5475 2.5625 6.1875 C1.2425 5.8575 -0.0775 5.5275 -1.4375 5.1875 C-1.4375 4.1975 -1.4375 3.2075 -1.4375 2.1875 C-2.0975 2.1875 -2.7575 2.1875 -3.4375 2.1875 C-5.07426257 4.1475281 -5.07426257 4.1475281 -6.4375 6.1875 C-7.0975 5.5275 -7.7575 4.8675 -8.4375 4.1875 C-9.4275 4.1875 -10.4175 4.1875 -11.4375 4.1875 C-7.66010431 1.19163445 -4.82161549 0.04065443 0 0 Z " fill="#3F464D" transform="translate(228.4375,212.8125)"/>
<path d="M0 0 C-2 3 -2 3 -5 4 C-4.01 5.485 -4.01 5.485 -3 7 C-5.7798816 8.3899408 -7.9186326 8.18488204 -11 8 C-13.375 7 -13.375 7 -15 6 C-14.67 4.35 -14.34 2.7 -14 1 C-12.04310963 0.63794536 -10.08442332 0.28558579 -8.125 -0.0625 C-7.03445313 -0.25972656 -5.94390625 -0.45695312 -4.8203125 -0.66015625 C-2 -1 -2 -1 0 0 Z " fill="#27323A" transform="translate(288,260)"/>
<path d="M0 0 C0.33 0.66 0.66 1.32 1 2 C0.13986463 4.42188287 -0.77684099 6.71765578 -1.8125 9.0625 C-2.08642578 9.71283203 -2.36035156 10.36316406 -2.64257812 11.03320312 C-4.74175664 15.87087832 -4.74175664 15.87087832 -7 17 C-7 16.34 -7 15.68 -7 15 C-8.32 15 -9.64 15 -11 15 C-11 14.01 -11 13.02 -11 12 C-10.34 12 -9.68 12 -9 12 C-9.33 11.01 -9.66 10.02 -10 9 C-7.69 9 -5.38 9 -3 9 C-3.061875 8.071875 -3.12375 7.14375 -3.1875 6.1875 C-3 3 -3 3 -1.5 1.125 C-1.005 0.75375 -0.51 0.3825 0 0 Z M-14 10 C-12.68 10.33 -11.36 10.66 -10 11 C-11.32 11.33 -12.64 11.66 -14 12 C-14 11.34 -14 10.68 -14 10 Z " fill="#414A52" transform="translate(361,257)"/>
<path d="M0 0 C2.97 0.495 2.97 0.495 6 1 C5.67 3.64 5.34 6.28 5 9 C5.66 9.33 6.32 9.66 7 10 C3.53058454 9.54177532 0.32604951 9.10868317 -3 8 C-2.45276317 4.62537285 -1.9451 2.91765 0 0 Z " fill="#434C55" transform="translate(181,259)"/>
<path d="M0 0 C0.66 0.474375 1.32 0.94875 2 1.4375 C5.7933028 3.41317854 8.75524068 3.64027463 13 4 C13 4.33 13 4.66 13 5 C7.06 5.495 7.06 5.495 1 6 C0.67 7.65 0.34 9.3 0 11 C0.99 11.33 1.98 11.66 3 12 C0.23723823 11.47731534 -2.3260876 10.89130413 -5 10 C-5 7.36 -5 4.72 -5 2 C-3.68 2.99 -2.36 3.98 -1 5 C-0.67 3.35 -0.34 1.7 0 0 Z " fill="#40484E" transform="translate(273,255)"/>
<path d="M0 0 C0.66 0.66 1.32 1.32 2 2 C2.99 1.67 3.98 1.34 5 1 C5 4 5 4 4 7 C-0.455 7.495 -0.455 7.495 -5 8 C-5.1875 5.125 -5.1875 5.125 -5 2 C-2 0 -2 0 0 0 Z " fill="#353C48" transform="translate(191,260)"/>
<path d="M0 0 C1.65322266 0.01740234 1.65322266 0.01740234 3.33984375 0.03515625 C4.99693359 0.04869141 4.99693359 0.04869141 6.6875 0.0625 C7.54214844 0.07410156 8.39679688 0.08570313 9.27734375 0.09765625 C8.94734375 3.39765625 8.61734375 6.69765625 8.27734375 10.09765625 C5.30734375 10.09765625 2.33734375 10.09765625 -0.72265625 10.09765625 C-1.71265625 7.12765625 -2.70265625 4.15765625 -3.72265625 1.09765625 C-2.72265625 0.09765625 -2.72265625 0.09765625 0 0 Z M0.58984375 2.59765625 C0.15671875 3.09265625 -0.27640625 3.58765625 -0.72265625 4.09765625 C-0.06265625 5.74765625 0.59734375 7.39765625 1.27734375 9.09765625 C2.9434628 9.14037725 4.6111726 9.13829457 6.27734375 9.09765625 C7.54737698 8.04455348 7.54737698 8.04455348 7.46484375 5.66015625 C7.54574358 2.9303095 7.54574358 2.9303095 5.27734375 1.09765625 C2.27474858 0.76547433 2.27474858 0.76547433 0.58984375 2.59765625 Z " fill="#EF995D" transform="translate(165.72265625,226.90234375)"/>
<path d="M0 0 C4.95 0 9.9 0 15 0 C12.39133036 2.60866964 10.61788317 2.54503835 7 3.0625 C2.86094885 3.58603718 2.86094885 3.58603718 -1 5 C-1 5.66 -1 6.32 -1 7 C-0.34 7 0.32 7 1 7 C0.67 7.66 0.34 8.32 0 9 C-2.03833424 7.7260411 -4.03852126 6.38938077 -6 5 C-6 4.34 -6 3.68 -6 3 C-4.02 2.34 -2.04 1.68 0 1 C0 0.67 0 0.34 0 0 Z " fill="#E9A871" transform="translate(142,257)"/>
<path d="M0 0 C0.33 0.66 0.66 1.32 1 2 C1.66 2 2.32 2 3 2 C3.33 3.65 3.66 5.3 4 7 C3.319375 6.2575 3.319375 6.2575 2.625 5.5 C1.12364481 3.77390663 1.12364481 3.77390663 -1 4 C-1 4.66 -1 5.32 -1 6 C-2.359375 8.109375 -2.359375 8.109375 -5 10 C-8.42751331 10.5009209 -11.79548445 10.37579468 -15.25 10.25 C-16.18585938 10.23195312 -17.12171875 10.21390625 -18.0859375 10.1953125 C-20.39167015 10.14825673 -22.69530945 10.08253713 -25 10 C-24.67 9.34 -24.34 8.68 -24 8 C-18.39 8 -12.78 8 -7 8 C-7.33 7.01 -7.66 6.02 -8 5 C-6.68 5.33 -5.36 5.66 -4 6 C-4 5.34 -4 4.68 -4 4 C-3.34 4 -2.68 4 -2 4 C-2 3.34 -2 2.68 -2 2 C-1.34 2 -0.68 2 0 2 C0 1.34 0 0.68 0 0 Z " fill="#84888E" transform="translate(296,235)"/>
<path d="M0 0 C2 3 2 3 3 6 C2.01 6.495 2.01 6.495 1 7 C1 7.99 1 8.98 1 10 C0.01 10.495 0.01 10.495 -1 11 C-1.66 10.67 -2.32 10.34 -3 10 C-3 9.34 -3 8.68 -3 8 C-4.32 7.34 -5.64 6.68 -7 6 C-7 5.34 -7 4.68 -7 4 C-5.824375 3.566875 -5.824375 3.566875 -4.625 3.125 C-1.90328368 2.15087746 -1.90328368 2.15087746 0 0 Z " fill="#29333C" transform="translate(274,230)"/>
<path d="M0 0 C-0.20625 0.598125 -0.4125 1.19625 -0.625 1.8125 C-1.30671915 4.28450846 -1.30671915 4.28450846 1 7 C0.34 7 -0.32 7 -1 7 C-1 7.66 -1 8.32 -1 9 C-2.65 9 -4.3 9 -6 9 C-5.34 8.01 -4.68 7.02 -4 6 C-4.66 4.68 -5.32 3.36 -6 2 C-6.4125 2.515625 -6.825 3.03125 -7.25 3.5625 C-7.8275 4.036875 -8.405 4.51125 -9 5 C-11.1875 4.6875 -11.1875 4.6875 -13 4 C-8.48649253 0.47726246 -5.71658336 -0.45732667 0 0 Z " fill="#424A51" transform="translate(280,229)"/>
<path d="M0 0 C1.32 0.33 2.64 0.66 4 1 C4.66 3.31 5.32 5.62 6 8 C5.01 8.33 4.02 8.66 3 9 C2.67 9.66 2.34 10.32 2 11 C-1 9 -1 9 -1.8125 6.625 C-2.02089707 3.70744102 -1.53656962 2.4404341 0 0 Z " fill="#222B33" transform="translate(341,241)"/>
<path d="M0 0 C-2.31 0.33 -4.62 0.66 -7 1 C-7 2.32 -7 3.64 -7 5 C-7.99 5 -8.98 5 -10 5 C-10.0825 5.78375 -10.165 6.5675 -10.25 7.375 C-10.4975 8.24125 -10.745 9.1075 -11 10 C-12.31647119 10.69937532 -13.65022151 11.36729133 -15 12 C-15.80528889 14.05000871 -15.80528889 14.05000871 -16 16 C-16.66 16 -17.32 16 -18 16 C-16.56761983 11.95389518 -14.6211273 8.73515887 -12.125 5.25 C-11.44695312 4.28578125 -10.76890625 3.3215625 -10.0703125 2.328125 C-6.86050617 -1.28139306 -4.46593618 -1.43547949 0 0 Z " fill="#EB9362" transform="translate(157,223)"/>
<path d="M0 0 C1.32 0.33 2.64 0.66 4 1 C2.61219205 4.89006773 0.7847773 7.96558708 -1.625 11.3125 C-2.25664062 12.19550781 -2.88828125 13.07851563 -3.5390625 13.98828125 C-4.02117187 14.65214844 -4.50328125 15.31601562 -5 16 C-6.15957207 12.52128379 -5.77456651 11.65780355 -4.5625 8.3125 C-4.27503906 7.50425781 -3.98757812 6.69601562 -3.69140625 5.86328125 C-3.46324219 5.24839844 -3.23507813 4.63351562 -3 4 C-2.01 4.33 -1.02 4.66 0 5 C0 3.35 0 1.7 0 0 Z " fill="#E78C54" transform="translate(172,260)"/>
<path d="M0 0 C1.75570312 0.04060547 1.75570312 0.04060547 3.546875 0.08203125 C4.43890625 0.11683594 5.3309375 0.15164062 6.25 0.1875 C5.49432948 3.97380702 4.12402727 5.5916044 1.25 8.1875 C1.58 6.5375 1.91 4.8875 2.25 3.1875 C-2.04 3.1875 -6.33 3.1875 -10.75 3.1875 C-6.32129086 -0.13403186 -5.28391318 -0.1585174 0 0 Z " fill="#E8A573" transform="translate(174.75,252.8125)"/>
<path d="M0 0 C-0.33 2.97 -0.66 5.94 -1 9 C-3.24609375 9.45572917 -5.4921875 9.91145833 -7.73828125 10.3671875 C-10.25301118 10.94478999 -10.25301118 10.94478999 -13 13 C-12.125 8.25 -12.125 8.25 -11 6 C-6.545 6.99 -6.545 6.99 -2 8 C-2 5.69 -2 3.38 -2 1 C-4.64 1 -7.28 1 -10 1 C-10 0.67 -10 0.34 -10 0 C-6.30458414 -0.95024979 -3.69541586 -0.95024979 0 0 Z " fill="#757A7E" transform="translate(332,229)"/>
<path d="M0 0 C0.33 0.66 0.66 1.32 1 2 C0.34 1.67 -0.32 1.34 -1 1 C-0.67 0.67 -0.34 0.34 0 0 Z M-4 2 C-3.01 2 -2.02 2 -1 2 C-1 2.99 -1 3.98 -1 5 C-0.34 5.33 0.32 5.66 1 6 C-0.3125 8 -0.3125 8 -2 10 C-2.99 10 -3.98 10 -5 10 C-5.93065133 7.39417629 -6.14917407 6.35801776 -5.0625 3.75 C-4.711875 3.1725 -4.36125 2.595 -4 2 Z " fill="#222E39" transform="translate(351,267)"/>
<path d="M0 0 C0.99 0 1.98 0 3 0 C3 2.31 3 4.62 3 7 C0.03 7 -2.94 7 -6 7 C-5.01 6.67 -4.02 6.34 -3 6 C-1.83333333 4.08333333 -1.83333333 4.08333333 -1 2 C-0.67 1.34 -0.34 0.68 0 0 Z " fill="#232B34" transform="translate(257,230)"/>
<path d="M0 0 C0.99 0.495 0.99 0.495 2 1 C2 1.99 2 2.98 2 4 C2.99 3.67 3.98 3.34 5 3 C5.66 3.66 6.32 4.32 7 5 C6.34 6.32 5.68 7.64 5 9 C2.525 8.01 2.525 8.01 0 7 C0 4.69 0 2.38 0 0 Z " fill="#29323B" transform="translate(187,230)"/>
<path d="M0 0 C2.125 0.375 2.125 0.375 4 1 C4 1.66 4 2.32 4 3 C4.66 3 5.32 3 6 3 C6.33 4.32 6.66 5.64 7 7 C4.37886292 7 2.49064888 6.68707555 0 6 C0 5.34 0 4.68 0 4 C0.99 4 1.98 4 3 4 C2.34 3.34 1.68 2.68 1 2 C0.01 2 -0.98 2 -2 2 C-1.34 1.34 -0.68 0.68 0 0 Z " fill="#6E7378" transform="translate(291,255)"/>
<path d="M0 0 C1.21236328 0.01353516 1.21236328 0.01353516 2.44921875 0.02734375 C3.37154297 0.04474609 3.37154297 0.04474609 4.3125 0.0625 C4.3125 0.3925 4.3125 0.7225 4.3125 1.0625 C2.4253125 1.18625 2.4253125 1.18625 0.5 1.3125 C-3.02561212 1.72807143 -3.02561212 1.72807143 -5.6875 4.125 C-6.0175 4.764375 -6.3475 5.40375 -6.6875 6.0625 C-7.3475 5.4025 -8.0075 4.7425 -8.6875 4.0625 C-9.6775 4.0625 -10.6675 4.0625 -11.6875 4.0625 C-7.77955721 0.9630971 -4.97782666 -0.07214242 0 0 Z " fill="#6C7277" transform="translate(228.6875,212.9375)"/>
<path d="M0 0 C0.66 0.33 1.32 0.66 2 1 C1.67 2.98 1.34 4.96 1 7 C-0.32 7.33 -1.64 7.66 -3 8 C-3.1875 5.125 -3.1875 5.125 -3 2 C-2.01 1.34 -1.02 0.68 0 0 Z " fill="#1F3039" transform="translate(189,260)"/>
<path d="M0 0 C0.33 0 0.66 0 1 0 C0.95875 1.11375 0.9175 2.2275 0.875 3.375 C0.58878141 7.04366025 0.58878141 7.04366025 3 9 C1.02 9.66 -0.96 10.32 -3 11 C-2.44894091 7.0507432 -1.61064629 3.65079826 0 0 Z " fill="#434A51" transform="translate(356,245)"/>
<path d="M0 0 C1.134375 0.020625 2.26875 0.04125 3.4375 0.0625 C3.4375 0.3925 3.4375 0.7225 3.4375 1.0625 C1.7875 1.0625 0.1375 1.0625 -1.5625 1.0625 C-1.5625 2.0525 -1.5625 3.0425 -1.5625 4.0625 C-0.9025 4.3925 -0.2425 4.7225 0.4375 5.0625 C-0.5525 5.3925 -1.5425 5.7225 -2.5625 6.0625 C-2.8925 6.7225 -3.2225 7.3825 -3.5625 8.0625 C-3.94313221 5.7364143 -4.27519945 3.40194736 -4.5625 1.0625 C-3.5625 0.0625 -3.5625 0.0625 0 0 Z " fill="#222B33" transform="translate(228.5625,213.9375)"/>
<path d="M0 0 C2.69082872 0.17635452 5.32851446 0.61835921 8 1 C8 1.33 8 1.66 8 2 C6.02 2.33 4.04 2.66 2 3 C2 5.31 2 7.62 2 10 C1.34 10 0.68 10 0 10 C-0.19412181 8.52168779 -0.38012131 7.04230684 -0.5625 5.5625 C-0.66691406 4.73878906 -0.77132812 3.91507813 -0.87890625 3.06640625 C-0.91886719 2.38449219 -0.95882812 1.70257813 -1 1 C-0.67 0.67 -0.34 0.34 0 0 Z " fill="#71777B" transform="translate(186,228)"/>
<path d="M0 0 C0.99 0 1.98 0 3 0 C3 0.66 3 1.32 3 2 C3.99 2.33 4.98 2.66 6 3 C6 3.99 6 4.98 6 6 C6.66 6 7.32 6 8 6 C7.67 6.66 7.34 7.32 7 8 C4.5 6.6875 4.5 6.6875 2 5 C2 4.01 2 3.02 2 2 C1.34 2 0.68 2 0 2 C0 1.34 0 0.68 0 0 Z " fill="#EA8952" transform="translate(141,262)"/>
<path d="M0 0 C3.63 0 7.26 0 11 0 C10.34 1.98 9.68 3.96 9 6 C8.34 5.67 7.68 5.34 7 5 C7.33 3.68 7.66 2.36 8 1 C3.545 1.495 3.545 1.495 -1 2 C-0.67 1.34 -0.34 0.68 0 0 Z " fill="#60646C" transform="translate(363,229)"/>
<path d="M0 0 C0.33 0 0.66 0 1 0 C1 2.31 1 4.62 1 7 C-0.32 7 -1.64 7 -3 7 C-2.25 2.25 -2.25 2.25 0 0 Z " fill="#4A4E53" transform="translate(235,216)"/>
<path d="M0 0 C0.6875 1.8125 0.6875 1.8125 1 4 C-0.4375 5.75 -0.4375 5.75 -2 7 C-2.99 6.67 -3.98 6.34 -5 6 C-3.63016497 2.83884224 -3.0109362 2.0072908 0 0 Z " fill="#232B32" transform="translate(220,216)"/>
<path d="M0 0 C0.66 0.33 1.32 0.66 2 1 C1.67 2.65 1.34 4.3 1 6 C0.01 6.33 -0.98 6.66 -2 7 C-2.125 4.625 -2.125 4.625 -2 2 C-1.34 1.34 -0.68 0.68 0 0 Z " fill="#232B33" transform="translate(265,251)"/>
<path d="M0 0 C0.33 0.66 0.66 1.32 1 2 C0.22265625 3.7265625 0.22265625 3.7265625 -0.9375 5.625 C-1.618125 6.73875 -2.29875 7.8525 -3 9 C-3.99 8.67 -4.98 8.34 -6 8 C-4.02 5.36 -2.04 2.72 0 0 Z " fill="#E99D6B" transform="translate(138,239)"/>
<path d="M0 0 C1.32 1.32 2.64 2.64 4 4 C3.67 4.99 3.34 5.98 3 7 C1.68 7 0.36 7 -1 7 C-0.34 5.35 0.32 3.7 1 2 C0.34 1.67 -0.32 1.34 -1 1 C-0.67 0.67 -0.34 0.34 0 0 Z " fill="#27303A" transform="translate(343,243)"/>
<path d="M0 0 C0.33 1.32 0.66 2.64 1 4 C-0.32 3.67 -1.64 3.34 -3 3 C-3 2.34 -3 1.68 -3 1 C-4.32 0.67 -5.64 0.34 -7 0 C-3.86650268 -1.04449911 -3.01031744 -0.93423645 0 0 Z " fill="#F17223" transform="translate(147,261)"/>
<path d="M0 0 C1.98 0.99 1.98 0.99 4 2 C4 2.66 4 3.32 4 4 C2.68 4.33 1.36 4.66 0 5 C0 3.35 0 1.7 0 0 Z " fill="#EC752C" transform="translate(174,231)"/>
</svg>
